<?xml version="1.0" encoding="utf-8"?>
<!-- Generator: Adobe Illustrator 21.0.2, SVG Export Plug-In . SVG Version: 6.00 Build 0)  -->
<svg version="1.1" id="_2" xmlns="http://www.w3.org/2000/svg" xmlns:xlink="http://www.w3.org/1999/xlink" x="0px" y="0px"
	 viewBox="0 0 1184 516" style="enable-background:new 0 0 1184 516;" xml:space="preserve">
<style type="text/css">
	.st0{fill:#FDC649;}
	.st1{fill:#FDD780;}
	.st2{fill:#FEDD92;}
	.st3{fill:#3C3D3D;}
</style>
<title>Artboard 2</title>
<path class="st0" d="M53.8,457.2H36.4v55.7H20.2v-55.7H2.5v-13.8h51.2V457.2z"/>
<path class="st0" d="M116.9,512.9h-16.2v-28.7H79.2v28.7H63v-69.5h16.2v27.1h21.5v-27.1h16.2L116.9,512.9z"/>
<path class="st0" d="M147.2,456.9V471h26.3v13h-26.3v15.4h33.4v13.5H131v-69.4h49.6v13.5L147.2,456.9z"/>
<path class="st0" d="M261.4,470.4c-0.1-7.7-2.7-14.9-11.6-14.9c-11.4,0-12.6,15-12.6,23.4c0,9.5,1.1,21.8,13.4,21.8
	c7.6,0,11.1-6.4,12-13.1l15.8,1c-1.7,15.9-12.7,25.3-28.7,25.3c-20.7,0-30.7-16.8-30.7-35.8c0-19.2,10.3-35.8,31.2-35.8
	c17.4,0,26.3,10.1,28.1,26.8L261.4,470.4z"/>
<path class="st0" d="M306.5,512.9h-16.2v-69.5h16.2V512.9z"/>
<path class="st0" d="M367.7,457.2h-17.4v55.7H334v-55.7h-17.6v-13.8h51.2L367.7,457.2z"/>
<path class="st0" d="M427.7,512.9h-17.5l-4.2-14.3h-22.5l-4.4,14.3h-14.3l22.3-69.5h18.8L427.7,512.9z M402.2,485.9l-7.4-24.4
	l-7.4,24.4H402.2z"/>
<path class="st0" d="M476,457.2h-17.4v55.7h-16.2v-55.7h-17.6v-13.8H476V457.2z"/>
<path class="st0" d="M501.9,512.9h-16.2v-69.5h16.2V512.9z"/>
<path class="st0" d="M521.2,503c-5.1-7.2-7.3-16.2-7.3-24.9c0-18.4,9.2-35.6,29.8-35.6c9.2,0,16.5,3,22.1,10.6
	c5,6.8,7.5,16.6,7.5,25c0,7.9-2.1,17.5-6.6,24.1c-5.4,7.9-13.6,11.7-23,11.7S526.6,510.7,521.2,503z M533.2,463.6
	c-1.6,4.1-2.2,10.1-2.2,14.5c0,8.7,1.3,22.6,12.8,22.6c5.6,0,8.6-2.7,10.4-7.9c1.6-4.2,2.1-10,2.1-14.6c0-5.1-0.5-11-2.5-15.7
	s-5-6.8-10-6.8C538.1,455.7,535,458.5,533.2,463.6L533.2,463.6z"/>
<path class="st0" d="M638.1,512.9h-13.9l-26.6-46.7h-0.4v46.7h-12.6v-69.5h17.5l23.2,40.8h0.2v-40.8h12.6L638.1,512.9z"/>
<path class="st0" d="M700.1,512.9h-16.2v-69.5H710c6.8,0,13,0,18.7,4c5.7,3.9,9.1,10.4,9,17.3c0,6.6-2.3,13.3-7.5,17.6
	c-6,5-12.4,4.9-19.7,4.9h-10.4V512.9z M709.2,474.5c3.8,0,7.1,0,9.9-3c3.4-4.1,2.9-10.1-1.1-13.5c-2.5-1.9-5.9-1.9-8.9-1.9h-9v18.4
	L709.2,474.5z"/>
<path class="st0" d="M791.4,499.1v13.8h-44.1v-69.5h16.2v55.7L791.4,499.1z"/>
<path class="st0" d="M856.5,512.9H839l-4.2-14.3h-22.5l-4.4,14.3h-14.3l22.3-69.5h18.8L856.5,512.9z M831,485.9l-7.4-24.4l-7.4,24.4
	H831z"/>
<path class="st0" d="M904.8,457.2h-17.4v55.7h-16.2v-55.7h-17.6v-13.8h51.2V457.2z"/>
<path class="st0" d="M930.3,456.9v15.8h26.4v13.1h-26.4v27.1h-16.2v-69.5h49.4v13.5L930.3,456.9z"/>
<path class="st0" d="M974.3,503c-5.1-7.2-7.3-16.2-7.3-24.9c0-18.4,9.2-35.6,29.8-35.6c9.2,0,16.5,3,22.1,10.6
	c5,6.8,7.5,16.6,7.5,25c0,7.9-2.1,17.5-6.6,24.1c-5.4,7.9-13.6,11.7-23,11.7S979.7,510.7,974.3,503z M986.2,463.6
	c-1.6,4.1-2.2,10.1-2.2,14.4c0,8.7,1.3,22.6,12.8,22.6c5.6,0,8.6-2.7,10.4-7.9c1.6-4.2,2.1-10,2.1-14.6c0-5.1-0.5-11-2.5-15.7
	s-5-6.8-10-6.8C991.2,455.7,988.2,458.5,986.2,463.6L986.2,463.6z"/>
<path class="st0" d="M1054.3,512.9h-16.2v-69.5h29.3c6.2,0,12.4,0.1,17.8,3.5c5.7,3.8,8.8,10.5,8.8,17.3c0.2,7.9-4.6,15.1-12,17.9
	l12.9,30.7h-18l-10.6-27.4h-11.8L1054.3,512.9z M1054.3,473.5h8.9c3.3,0,7,0.3,9.9-1.4c2.6-1.8,4.1-4.8,4.1-7.9
	c-0.1-2.9-1.6-5.5-4-7.1c-2.7-1.7-7.4-1.3-10.4-1.3h-8.5L1054.3,473.5z"/>
<path class="st0" d="M1147.6,512.9h-11.1l-16.9-56.6h-0.2v56.6h-13.7v-69.5h25.4l12.2,41.6l12.7-41.6h25.4v69.5h-16.2v-56.6h-0.4
	L1147.6,512.9z"/>
<path class="st0" d="M1078.1,2.1c-20.9,0-37.9,17-37.9,37.9c0,20.6,17,37.4,37.9,37.4c20.3,0,37.4-17.1,37.4-37.4
	C1115.5,19.1,1098.7,2.1,1078.1,2.1z"/>
<path class="st1" d="M975,2.1c-20.9,0.1-37.8,17-37.9,37.9c0,20.6,17,37.4,37.9,37.4c20.3,0,37.4-17.1,37.4-37.4
	C1012.4,19.1,995.7,2.1,975,2.1z"/>
<path class="st2" d="M865.1,2.1c-20.9,0-37.9,17-37.9,37.9c0,20.6,17,37.4,37.9,37.4c20.3,0,37.4-17.1,37.4-37.4
	C902.5,19.1,885.7,2.1,865.1,2.1z"/>
<path class="st3" d="M476.4,323.5v38.4c0,1.8-1.3,3.3-3,3.6c-15.9,3.3-28.3,5-37.3,5c-15.6,0-29-3.1-40.2-9.3
	c-11.2-6.2-19.4-14.7-24.6-25.5c-5.2-10.8-7.8-27.4-7.8-49.8V156.5c0-2-1.7-3.7-3.7-3.7l0,0h-24.6c-2,0-3.7-1.7-3.7-3.7c0,0,0,0,0,0
	v-37.7c0-2,1.7-3.7,3.7-3.7l0,0h28.3c1.9,0,3.5-1.5,3.7-3.4l-0.4-60.5c0.1-1.8,1.6-3.2,3.4-3.4h33.6c8.1-0.7,15.3,5.2,16.1,13.4
	c0,0.4,0.1,0.9,0.1,1.3V104c0,2,1.7,3.7,3.7,3.7l0,0h44.3c2,0,3.7,1.7,3.7,3.7v0v37.7c0,2-1.7,3.7-3.7,3.7l0,0h-44.3
	c-2,0-3.7,1.7-3.7,3.7c0,0,0,0,0,0v121.8c0,16.1,2.9,27.1,8.8,33c5.9,5.9,16.9,8.8,33.2,8.8c3.4,0,6.9-0.1,10.6-0.3
	c2-0.1,3.8,1.4,3.9,3.5C476.4,323.4,476.4,323.5,476.4,323.5z"/>
<path class="st3" d="M579.4,364.9h-50.7c-2,0-3.7-1.7-3.7-3.7v0V21c0-2,1.7-3.7,3.7-3.7l0,0h32.2c12.2,0,22.2,9.9,22.2,22.2v321.8
	C583.1,363.3,581.4,364.9,579.4,364.9z"/>
<path class="st3" d="M868,364.9h-47.6c-1.6,0-3.1-1.1-3.6-2.6c-3.4-11.7-5.8-23.6-7-35.7c-0.2-2-2-3.5-4.1-3.3
	c-1.2,0.1-2.2,0.8-2.8,1.9c-16.4,30-43.5,45-81.3,45c-25.6,0-46.2-7.5-61.8-22.5s-23.3-33.9-23.3-56.7c0-59.1,51.9-88.6,155.6-88.6
	c3.3,0,7.6,0.1,12.8,0.2c2,0,3.7-1.6,3.8-3.6c0,0,0,0,0-0.1v-15.5c0-26.7-18.2-40-54.5-40c-33.8,0-53.6,12.2-59.4,36.7
	c-0.5,1.8-2.2,3-4.1,2.8l-42.3-6.3c-2-0.3-3.4-2.2-3.1-4.3c0,0,0-0.1,0-0.1c3.5-19.7,14.3-36,32.5-49c19.3-13.8,47.3-20.8,84-20.8
	c19.9,0,36.1,1.7,48.6,5s23.2,8.9,31.8,16.8c8.7,7.9,14.7,16.5,18,25.7c3.3,9.3,5,24.9,5,47V313c0.1,16,2.2,31.9,6.4,47.3
	c0.5,2-0.7,4-2.6,4.5C868.7,364.9,868.3,364.9,868,364.9z M808.7,237.8c0-2.1-1.7-3.7-3.7-3.7c0,0,0,0,0,0
	c-72.5,0.6-108.8,18.5-108.8,53.7c-0.2,10.3,3.9,20.2,11.3,27.4c7.6,7.6,19,11.3,34.2,11.3c22.1,0,38.7-7,50-21
	c11.1-13.4,17.1-30.3,16.9-47.7L808.7,237.8z"/>
<path class="st3" d="M289,364.9h-47.7c-1.6,0-3.1-1.1-3.6-2.6c-3.4-11.7-5.8-23.6-7-35.7c-0.2-2-2-3.5-4.1-3.3
	c-1.2,0.1-2.2,0.8-2.8,1.9c-16.4,30-43.5,45-81.3,45c-25.6,0-46.2-7.5-61.8-22.5S57.6,313.8,57.6,291c0-59.1,51.9-88.6,155.6-88.6
	c3.3,0,7.6,0.1,12.8,0.2c2,0,3.7-1.6,3.8-3.6c0,0,0,0,0-0.1v-15.5c0-26.7-18.2-40-54.5-40c-33.8,0-53.6,12.2-59.4,36.7
	c-0.5,1.8-2.2,3-4.1,2.8l-42.3-6.3c-2-0.3-3.4-2.2-3.1-4.3c0,0,0-0.1,0-0.1c3.5-19.7,14.3-36,32.5-49c19.3-13.8,47.3-20.8,84-20.8
	c19.9,0,36.1,1.7,48.6,5s23.2,8.9,31.8,16.8c8.7,7.9,14.7,16.5,18,25.7c3.3,9.3,5,24.9,5,47V313c0.1,16,2.2,31.9,6.4,47.3
	c0.5,2-0.7,4-2.6,4.5C289.7,364.9,289.3,364.9,289,364.9z M229.7,237.8c0-2.1-1.7-3.7-3.7-3.7c0,0,0,0,0,0
	c-72.5,0.6-108.8,18.5-108.8,53.7c-0.2,10.3,3.9,20.2,11.3,27.4c7.6,7.6,19,11.3,34.2,11.3c22.1,0,38.7-7,50-21
	c11.1-13.4,17.1-30.3,16.9-47.7L229.7,237.8z"/>
<path class="st3" d="M907.5,305.1L955,296c1.6-0.3,3.3,0.5,4,2c8.8,19.2,26.7,28.8,53.9,28.8c36,0,54-10.6,54-31.8
	c0-6.8-2.8-12.4-8.4-16.8c-5.8-4.5-12.6-7.6-19.9-8.9l-46.8-8.9c-51.9-10-77.9-35.4-77.9-76.1c0-22.7,8.2-42.1,24.7-57.9
	s41-23.8,73.6-23.8c52.4,0,85.2,18.6,98.2,55.8c0.7,1.9-0.3,4.1-2.2,4.8c-0.2,0.1-0.3,0.1-0.5,0.1l-44.4,9c-1.8,0.4-3.6-0.6-4.2-2.4
	c-6.2-17.3-21.3-26-45.4-26c-30.9,0-46.3,9.7-46.3,29c0,13.4,12.5,22.7,37.4,27.8l55.2,11.4c42.9,8.8,64.4,33.4,64.4,73.8
	c0,28.4-11,49.5-33.1,63.5s-48.3,21-78.7,21c-26.3,0-49.6-5.3-69.8-15.9c-18.9-9.9-31.7-24.7-38.2-44.4c-0.7-1.9,0.4-4.1,2.3-4.7
	C907.1,305.2,907.3,305.1,907.5,305.1z"/>
</svg>
