<?xml version="1.0" encoding="utf-8"?>
<!-- Generator: Adobe Illustrator 21.0.2, SVG Export Plug-In . SVG Version: 6.00 Build 0)  -->
<svg version="1.1" xmlns="http://www.w3.org/2000/svg" xmlns:xlink="http://www.w3.org/1999/xlink" x="0px" y="0px"
	 viewBox="0 0 557.6 152.7" style="enable-background:new 0 0 557.6 152.7;" xml:space="preserve">
<style type="text/css">
	.st0{fill:#FCC354;}
	.st1{fill:#FFFFFF;}
</style>
<g id="Layer_1">
	<g>
		<path class="st0" d="M135.9,17.4c-5,0-9,3.9-9,8.8c0,4.8,4,8.7,9,8.7c4.8,0,8.9-4,8.9-8.7C144.8,21.4,140.8,17.4,135.9,17.4z"/>
		<path class="st0" d="M363,17.4c-5,0-9,3.9-9,8.8c0,4.8,4,8.7,9,8.7c4.8,0,8.9-4,8.9-8.7C371.9,21.4,367.9,17.4,363,17.4z"/>
		<path class="st1" d="M93.1,88.4l17.7,1.9c-1.1,10.6-5.2,19.3-12.3,26.2c-7.1,6.8-16.3,10.3-27.8,10.3c-9.7,0-17.5-2.4-23.5-7.3
			c-6-4.9-10.7-11.4-13.9-19.8c-3.3-8.3-4.9-17.5-4.9-27.5c0-16.1,3.8-29.2,11.5-39.3C47.5,22.8,58,17.7,71.4,17.7
			c10.5,0,19.2,3.2,26.2,9.7c7,6.5,11.4,15.7,13.2,27.7L93.1,57C89.9,41,82.7,33,71.6,33c-7.1,0-12.7,3.3-16.6,10
			C51,49.6,49,59.3,49,71.9c0,12.8,2.1,22.5,6.4,29c4.2,6.5,9.8,9.8,16.8,9.8c5.6,0,10.3-2.2,14.3-6.6
			C90.4,99.7,92.6,94.5,93.1,88.4z"/>
		<rect x="127.1" y="46.8" class="st1" width="17.7" height="78.3"/>
		<path class="st1" d="M203.6,111.3v13.8c-5.3,1.1-9.4,1.7-12.2,1.7c-4.8,0-8.8-0.9-12.2-2.8c-3.4-1.9-5.9-4.5-7.5-7.7
			c-1.6-3.3-2.4-8.3-2.4-15.1V60.6h-9.8V46.8h10.8l1.6-20.4l14.5-1.3v21.7h15.7v13.7h-15.7v38.2c0,4.9,0.9,8.3,2.7,10
			c1.8,1.8,5.2,2.7,10.1,2.7C200.5,111.5,202,111.4,203.6,111.3z"/>
		<path class="st1" d="M286.9,125.1h-16.8c-1.5-4.8-2.4-10-2.7-15.8c-4.7,11.6-13.5,17.4-26.5,17.4c-7.8,0-14.1-2.3-18.8-6.9
			c-4.7-4.6-7.1-10.3-7.1-17.2c0-18,15.8-27,47.3-27c1.2,0,2.9,0,5,0.1v-5.9c0-8.1-5.5-12.2-16.6-12.2c-10.7,0-16.8,4.1-18.3,12.2
			l-15-2.2c0.8-6.5,4.2-11.9,10.1-16.1c5.9-4.2,14.4-6.3,25.6-6.3c6,0,11,0.5,14.8,1.5c3.8,1,7.1,2.7,9.7,5.1c2.6,2.4,4.5,5,5.5,7.8
			c1,2.8,1.5,7.6,1.5,14.3v35.3C284.6,114.4,285.4,119.7,286.9,125.1z M267.4,85.3c-22.8,0-34.2,5.5-34.2,16.4c0,3.3,1.1,6,3.5,8.3
			c2.3,2.3,5.8,3.4,10.4,3.4c6.7,0,11.8-2.1,15.2-6.4c3.4-4.3,5.2-9.1,5.2-14.5V85.3z"/>
		<path class="st1" d="M339.3,111.3v13.8c-5.3,1.1-9.3,1.7-12.2,1.7c-4.8,0-8.8-0.9-12.2-2.8c-3.4-1.9-5.9-4.5-7.5-7.7
			c-1.6-3.3-2.4-8.3-2.4-15.1V60.6h-9.8V46.8H306l1.6-20.4l14.5-1.3v21.7h15.7v13.7h-15.7v38.2c0,4.9,0.9,8.3,2.7,10
			c1.8,1.8,5.2,2.7,10.1,2.7C336.3,111.5,337.8,111.4,339.3,111.3z"/>
		<rect x="354.1" y="46.8" class="st1" width="17.7" height="78.3"/>
		<path class="st1" d="M421.3,126.7c-11.6,0-20.4-4.2-26.5-12.5c-6.1-8.3-9.1-17.8-9.1-28.6c0-11.6,3.4-21.2,10.1-28.9
			c6.7-7.7,15.6-11.5,26.7-11.5c10.5,0,19.1,3.7,25.8,11.2c6.7,7.5,10.1,17.2,10.1,29.2c0,12.3-3.5,22.3-10.5,29.8
			C441,123,432.1,126.7,421.3,126.7z M422,112.2c11.9,0,17.8-8.9,17.8-26.6c0-8-1.4-14.3-4.3-18.9c-2.8-4.6-7.2-6.9-13.1-6.9
			c-6.1,0-10.6,2.4-13.6,7.2c-2.9,4.8-4.4,11.1-4.4,19c0,8.5,1.6,15,4.7,19.5C412.3,109.9,416.5,112.2,422,112.2z"/>
		<path class="st1" d="M536,125.1h-17.7V76.2c0-5.2-1.2-9.1-3.6-11.7c-2.4-2.6-5.2-3.9-8.6-3.9c-4.6,0-8.6,2-12.1,6
			c-3.5,4-5.2,10.1-5.2,18.2v40.2h-17.7V46.8h16.1V65c5.6-13.2,13.5-19.8,23.7-19.8c6.9,0,12.7,2.2,17.6,6.5
			c4.9,4.3,7.3,12,7.3,22.9V125.1z"/>
	</g>
</g>
<g id="Layer_2">
</g>
</svg>
